<svg width="25" height="24" viewBox="0 0 25 24" fill="none" xmlns="http://www.w3.org/2000/svg">
<g clip-path="url(#clip0_195_64)">
<path fill-rule="evenodd" clip-rule="evenodd" d="M10.2618 1.38517C8.83207 2.12994 7.66235 2.76017 7.6626 2.7858C7.66324 2.85196 11.094 4.58943 11.2158 4.58519C11.2712 4.58334 11.673 4.39837 12.1087 4.1742L12.9009 3.7667L13.7662 4.21146L14.6314 4.65631L16.0484 4.0196C18.1835 3.06018 18.4052 2.95505 18.3705 2.91973C18.3244 2.87286 17.5586 2.46146 15.4808 1.36762C14.4767 0.838951 13.5021 0.320612 13.315 0.215726C13.128 0.11084 12.9494 0.0264663 12.9182 0.0280995C12.887 0.0297327 11.6916 0.640418 10.2618 1.38517ZM3.99102 4.63239L2.50269 5.40117V8.77518C2.50269 10.6309 2.52223 12.1492 2.5462 12.1492C2.57009 12.1492 3.30235 11.8317 4.17341 11.4438L5.75716 10.7384V7.18196L6.53109 7.6036C7.12746 7.92822 7.7242 8.25218 8.32129 8.57548L9.33754 9.12571L9.78975 8.92122C10.0734 8.79278 10.3564 8.66308 10.6389 8.53213C10.8571 8.43048 11.3929 8.18915 11.8295 7.99574C12.2661 7.80225 12.6702 7.60767 12.7275 7.56333C12.8036 7.50442 11.8754 6.99148 9.29427 5.66603C7.34867 4.66691 5.69438 3.85263 5.61809 3.85653C5.5418 3.86043 4.80962 4.20953 3.99102 4.63239ZM18.6387 4.84828C17.6251 5.30589 16.795 5.69858 16.7941 5.72097C16.7932 5.74334 17.3457 6.07184 18.0219 6.45086C18.698 6.82996 19.2513 7.16039 19.2513 7.18528C19.2513 7.21011 18.6529 7.50002 17.9217 7.82965C17.1904 8.1592 15.3419 8.99397 13.8139 9.68471L8.69411 11.999C7.40622 12.5812 6.24533 13.1059 6.11437 13.1652C3.48378 14.3561 2.76073 14.6865 2.66144 14.7432C2.56159 14.8003 2.53898 15.1321 2.5212 16.7972L2.5 18.7832L3.83093 19.4614L5.16184 20.1395L7.00735 19.3066C8.02241 18.8486 8.85286 18.4498 8.85286 18.4204C8.85286 18.3911 8.66529 18.2689 8.43614 18.1487C8.20688 18.0285 7.73363 17.7624 7.38438 17.5573C7.03514 17.3522 6.68691 17.164 6.61045 17.139C6.53402 17.1141 6.4726 17.0706 6.47384 17.0422C6.47512 17.0138 7.28779 16.6278 8.27968 16.1843C10.2062 15.3229 11.6806 14.659 14.8458 13.2276C16.2612 12.5877 17.6768 11.9482 19.0925 11.309C20.3367 10.7474 21.7834 10.0915 22.3073 9.85144L23.2598 9.41498L23.281 7.40637L23.3023 5.39784L21.9524 4.70497C21.2099 4.32393 20.5753 4.0131 20.542 4.01423C20.5088 4.01528 19.6523 4.39056 18.6387 4.84828ZM22.8982 12.0946C22.6992 12.1917 22.3063 12.3737 22.025 12.4988C21.7437 12.624 21.2099 12.8648 20.8388 13.0341L20.1641 13.3419L20.1487 15.1053C20.1402 16.0751 20.1045 16.8643 20.0693 16.8592C19.9895 16.8473 18.7249 16.1988 17.4538 15.5176C16.5363 15.0261 16.4787 15.0065 16.2631 15.1133C16.1385 15.1751 15.3935 15.5092 14.6077 15.8559C13.8219 16.2025 13.1533 16.5088 13.1218 16.5365C13.0905 16.5642 14.6721 17.4214 16.6366 18.4416L20.2083 20.2963L21.7341 19.507C22.5732 19.073 23.2867 18.677 23.3196 18.6272C23.3935 18.5153 23.3872 11.9025 23.3132 11.9115C23.2839 11.915 23.0971 11.9974 22.8982 12.0946ZM14.449 19.8563C14.1843 19.97 13.9197 20.084 13.6552 20.1981C12.8564 20.5437 13.0129 20.5551 12.0626 20.0821C11.4297 19.767 11.1569 19.6698 11.0384 19.717C10.9496 19.7523 10.1851 20.0963 9.33945 20.4813C8.49383 20.8662 7.77261 21.1812 7.73674 21.1812C7.38194 21.1812 7.97178 21.5336 10.2478 22.6817L12.9171 24.0281L14.0402 23.4736C14.658 23.1686 15.9039 22.558 16.809 22.1165C17.714 21.675 18.4434 21.3023 18.4297 21.2883C18.416 21.2743 17.6576 20.8849 16.7444 20.4229L15.084 19.5831L14.449 19.8563Z" fill="#21E786"/>
</g>
<defs>
<clipPath id="clip0_195_64">
<rect width="24" height="24" fill="white" transform="translate(0.5)"/>
</clipPath>
</defs>
</svg>
