<svg width="25" height="24" viewBox="0 0 25 24" fill="none" xmlns="http://www.w3.org/2000/svg">
<path d="M8.50195 7C8.51406 4.82497 8.61051 3.64706 9.37889 2.87868C10.2576 2 11.6718 2 14.5002 2H15.5002C18.3286 2 19.7429 2 20.6215 2.87868C21.5002 3.75736 21.5002 5.17157 21.5002 8V16C21.5002 18.8284 21.5002 20.2426 20.6215 21.1213C19.7429 22 18.3286 22 15.5002 22H14.5002C11.6718 22 10.2576 22 9.37889 21.1213C8.61051 20.3529 8.51406 19.175 8.50195 17" stroke="#21E786" stroke-width="1.5" stroke-linecap="round"/>
<path d="M8.5 19.5C6.14298 19.5 4.96447 19.5 4.23223 18.7678C3.5 18.0355 3.5 16.857 3.5 14.5V9.5C3.5 7.14298 3.5 5.96447 4.23223 5.23223C4.96447 4.5 6.14298 4.5 8.5 4.5" stroke="#21E786" stroke-width="1.5"/>
<path d="M15.5 12L6.5 12M6.5 12L8.5 14M6.5 12L8.5 10" stroke="#21E786" stroke-width="1.5" stroke-linecap="round" stroke-linejoin="round"/>
</svg>
